<?xml version="1.0" encoding="UTF-8" standalone="no"?>
<svg width="197px" height="19px" viewBox="0 0 197 19" version="1.1" xmlns="http://www.w3.org/2000/svg" xmlns:xlink="http://www.w3.org/1999/xlink">
    <!-- Generator: Sketch 3.8.3 (29802) - http://www.bohemiancoding.com/sketch -->
    <title>Group</title>
    <desc>Created with Sketch.</desc>
    <defs></defs>
    <g id="Widget-prueba" stroke="none" stroke-width="1" fill="none" fill-rule="evenodd">
        <g id="Main-Screen" transform="translate(-1026.000000, -1288.000000)" stroke="#222228" stroke-width="0.9">
            <g id="02-Widget" transform="translate(989.000000, 1204.000000)">
                <g id="Group" transform="translate(135.500000, 93.500000) rotate(-270.000000) translate(-135.500000, -93.500000) translate(127.000000, -5.000000)">
                    <path d="M12.4368421,196.460274 L4.92105263,196.460274 C2.41578947,196.460274 0.447368421,194.481279 0.447368421,191.962557 L0.447368421,181.707763 L16.9105263,181.707763 L16.9105263,191.962557 C16.9105263,194.481279 14.8526316,196.460274 12.4368421,196.460274 L12.4368421,196.460274 Z" id="Shape" fill="#EB5424"></path>
                    <rect id="Rectangle-path" fill="#FFFFFF" x="0.447368421" y="174.241553" width="16.4631579" height="3.77808219"></rect>
                    <rect id="Rectangle-path" fill="#FFFFFF" x="0.447368421" y="177.92968" width="16.4631579" height="3.77808219"></rect>
                    <polygon id="Shape" fill="#FFFFFF" points="8.67894737 0.269863014 0.447368421 22.2187215 0.447368421 174.241553 16.9105263 174.241553 16.9105263 22.2187215"></polygon>
                    <path d="M0.447368421,22.2187215 L16.9105263,22.2187215" id="Shape"></path>
                    <polygon id="Shape" fill="#787878" points="10.3789474 4.85753425 8.67894737 0.269863014 6.88947368 4.85753425"></polygon>
                    <path d="M8.67894737,174.241553 L8.67894737,22.2187215" id="Shape" fill="#FFFFFF"></path>
                </g>
            </g>
        </g>
    </g>
</svg>